<?xml version="1.0" encoding="UTF-8"?>
<svg id="Layer_1" xmlns="http://www.w3.org/2000/svg" version="1.1" viewBox="0 0 45.15 45.15">
  <!-- Generator: Adobe Illustrator 29.8.2, SVG Export Plug-In . SVG Version: 2.1.1 Build 3)  -->
  <defs>
    <style>
      .st0 {
        fill: none;
      }

      .st1 {
        fill: #09244b;
      }
    </style>
  </defs>
  <g id="_页面-1" data-name="页面-1">
    <g id="Development">
      <g id="code_fill">
        <path id="MingCute" class="st0" d="M44.62,0v44.62H0V0h44.62ZM23.41,43.24h-.02s-.13.07-.13.07h-.04s-.03,0-.03,0l-.13-.07s-.03,0-.04.01v.02s-.04.79-.04.79v.04s.03.02.03.02l.19.14h.03s.02,0,.02,0l.19-.14.02-.03h0v-.03s-.03-.79-.03-.79c0-.02-.02-.03-.03-.03h0ZM23.91,43.03h-.03s-.34.18-.34.18l-.02.02h0v.02s.03.8.03.8v.02h.02s.37.19.37.19c.02,0,.04,0,.05-.01v-.03s-.06-1.14-.06-1.14c0-.02-.02-.04-.04-.04h0ZM22.58,43.03s-.04,0-.05,0v.03s-.07,1.14-.07,1.14c0,.02.01.04.03.04h.03s.37-.17.37-.17h.02s0-.04,0-.04l.03-.8v-.02h0l-.02-.02-.34-.17Z"/>
        <path id="_形状" data-name="形状" class="st1" d="M25.05,6.75c1.52.27,2.53,1.71,2.26,3.23l-4.52,25.63c-.27,1.52-1.71,2.53-3.23,2.26-1.52-.27-2.53-1.71-2.26-3.23l4.52-25.63c.27-1.52,1.71-2.53,3.23-2.26ZM14.06,12.45c1.09,1.09,1.09,2.85,0,3.94l-5.92,5.92,5.92,5.92c1.09,1.09,1.09,2.85,0,3.94-1.09,1.09-2.85,1.09-3.94,0l-7.89-7.89c-.52-.52-.82-1.23-.82-1.97s.29-1.45.82-1.97l7.89-7.89c1.09-1.09,2.85-1.09,3.94,0ZM34.51,12.45l7.89,7.89c.52.52.82,1.23.82,1.97s-.29,1.45-.82,1.97l-7.89,7.89c-1.09,1.09-2.85,1.09-3.94,0s-1.09-2.85,0-3.94l5.92-5.92-5.92-5.92c-1.09-1.09-1.09-2.85,0-3.94,1.09-1.09,2.85-1.09,3.94,0Z"/>
      </g>
    </g>
  </g>
</svg>