<?xml version="1.0" encoding="UTF-8"?>
<svg id="Layer_1" xmlns="http://www.w3.org/2000/svg" version="1.1" viewBox="0 0 42.28 43.63">
  <!-- Generator: Adobe Illustrator 29.8.2, SVG Export Plug-In . SVG Version: 2.1.1 Build 3)  -->
  <defs>
    <style>
      .st0 {
        fill: none;
      }

      .st1 {
        fill: #09244b;
        fill-rule: evenodd;
      }
    </style>
  </defs>
  <g id="_页面-1" data-name="页面-1">
    <g id="Business">
      <g id="flag_4_fill">
        <path id="MingCute" class="st0" d="M44.61,0v44.61H0V0h44.61ZM23.41,43.23h-.02s-.13.07-.13.07h-.04s-.03,0-.03,0l-.13-.07s-.03,0-.04.01v.02s-.04.79-.04.79v.04s.03.02.03.02l.19.14h.03s.02,0,.02,0l.19-.14.02-.03h0v-.03s-.03-.79-.03-.79c0-.02-.02-.03-.03-.03h0ZM23.9,43.02h-.03s-.34.18-.34.18l-.02.02h0v.02s.03.8.03.8v.02h.02s.37.19.37.19c.02,0,.04,0,.05-.01v-.03s-.06-1.14-.06-1.14c0-.02-.02-.04-.04-.04h0ZM22.57,43.02s-.04,0-.05,0v.03s-.07,1.14-.07,1.14c0,.02.01.04.03.04h.03s.37-.17.37-.17h.02s0-.04,0-.04l.03-.8v-.02h0l-.02-.02-.34-.17Z"/>
        <path id="_路径" data-name="路径" class="st1" d="M7.44,13.01v-3.75c0-1.82,1.03-3.49,2.66-4.3l.53-.26c3.85-1.93,8.42-1.75,12.12.47,2.22,1.33,4.92,1.63,7.38.81l6.11-2.04c1.6-.53,3.12.99,2.59,2.59l-3.38,10.15,3.39,8.48c.44,1.09-.14,2.33-1.25,2.7l-6.28,2.09c-3.49,1.16-7.31.74-10.47-1.15-2.6-1.56-5.83-1.69-8.54-.33l-1.13.57v10c0,1.03-.83,1.86-1.86,1.86s-1.86-.83-1.86-1.86V13.01Z"/>
      </g>
    </g>
  </g>
</svg>