<?xml version="1.0" encoding="UTF-8"?>
<svg id="Layer_1" xmlns="http://www.w3.org/2000/svg" version="1.1" viewBox="0 0 47 47">
  <!-- Generator: Adobe Illustrator 29.8.2, SVG Export Plug-In . SVG Version: 2.1.1 Build 3)  -->
  <defs>
    <style>
      .st0 {
        fill: none;
      }

      .st1 {
        fill: #09244b;
      }
    </style>
  </defs>
  <g id="_页面-1" data-name="页面-1">
    <g id="Logo">
      <g id="github_fill">
        <path id="MingCute" class="st0" d="M45.83,1.17v44.66H1.17V1.17h44.66ZM24.6,44.45h-.02s-.13.07-.13.07h-.04s-.03,0-.03,0l-.13-.07s-.03,0-.04.01v.02s-.04.8-.04.8v.04s.03.02.03.02l.19.14h.03s.02,0,.02,0l.19-.14.02-.03h0v-.03s-.03-.8-.03-.8c0-.02-.02-.03-.03-.03h0ZM25.1,44.24h-.03s-.34.18-.34.18l-.02.02h0v.02s.03.8.03.8v.02h.02s.37.19.37.19c.02,0,.04,0,.05-.01v-.03s-.06-1.14-.06-1.14c0-.02-.02-.04-.04-.04h0ZM23.77,44.24s-.04,0-.05,0v.03s-.07,1.14-.07,1.14c0,.02.01.04.03.04h.03s.37-.18.37-.18h.02s0-.04,0-.04l.03-.8v-.02h0l-.02-.02-.34-.17Z"/>
        <path id="_路径" data-name="路径" class="st1" d="M14.24,5.47c1.15.39,2.57,1.02,3.95,1.95,1.67-.43,3.46-.66,5.31-.66s3.63.23,5.3.66c1.38-.93,2.8-1.55,3.95-1.94,1.3-.44,3.14-1.16,4.24.06.75.83.93,2.21,1.06,3.27.15,1.18.18,2.72-.21,4.24,1.49,1.93,2.4,4.23,2.4,6.74,0,3.8-2.06,7.1-5.1,9.38-1.4,1.05-3.03,1.91-4.82,2.52.4.91.62,1.92.62,2.98v5.58c0,1.03-.83,1.86-1.86,1.86h-11.16c-1.03,0-1.86-.83-1.86-1.86v-1.84c-1.78.22-3.27.03-4.54-.51-1.32-.56-2.25-1.43-2.94-2.27-.66-.79-1.38-2.57-2.42-2.91-.97-.33-1.5-1.38-1.18-2.35.32-.98,1.38-1.5,2.35-1.18,1.24.41,2.05,1.31,2.6,2.02.89,1.15,1.62,2.66,3.03,3.26.58.25,1.44.41,2.77.23l.31-.06c0-1.05.23-2.04.62-2.94-1.79-.62-3.42-1.47-4.82-2.52-3.05-2.28-5.1-5.58-5.1-9.38,0-2.5.9-4.8,2.39-6.73-.39-1.53-.36-3.07-.21-4.25,0-.02,0-.05,0-.07.14-1.08.3-2.36,1.05-3.2,1.1-1.22,2.95-.5,4.24-.06Z"/>
      </g>
    </g>
  </g>
</svg>