<?xml version="1.0" encoding="UTF-8"?>
<svg id="Layer_1" xmlns="http://www.w3.org/2000/svg" version="1.1" viewBox="0 0 40.94 40.94">
  <!-- Generator: Adobe Illustrator 29.8.2, SVG Export Plug-In . SVG Version: 2.1.1 Build 3)  -->
  <defs>
    <style>
      .st0 {
        fill: none;
      }

      .st1 {
        fill: #09244b;
      }
    </style>
  </defs>
  <g id="_页面-1" data-name="页面-1">
    <g id="Contact">
      <g id="mailbox_fill">
        <path id="MingCute" class="st0" d="M42.8.67v44.66H-1.86V.67h44.66ZM21.57,43.95h-.02s-.13.07-.13.07h-.04s-.03,0-.03,0l-.13-.07s-.03,0-.04.01v.02s-.04.8-.04.8v.04s.03.02.03.02l.19.14h.03s.02,0,.02,0l.19-.14.02-.03h0v-.03s-.03-.8-.03-.8c0-.02-.02-.03-.03-.03h0ZM22.07,43.74h-.03s-.34.18-.34.18l-.02.02h0v.02s.03.8.03.8v.02h.02s.37.19.37.19c.02,0,.04,0,.05-.01v-.03s-.06-1.14-.06-1.14c0-.02-.02-.04-.04-.04h0ZM20.74,43.74s-.04,0-.05,0v.03s-.07,1.14-.07,1.14c0,.02.01.04.03.04h.03s.37-.18.37-.18h.02s0-.04,0-.04l.03-.8v-.02h0l-.02-.02-.34-.17Z"/>
        <path id="_形状" data-name="形状" class="st1" d="M30.7,6.25c4.49,0,8.16,3.54,8.36,7.98v.39s0,13.96,0,13.96c0,1.96-1.52,3.57-3.44,3.71h-.28s-5.58.01-5.58.01v5.58c0,1.03-.83,1.86-1.86,1.86-.95,0-1.74-.72-1.85-1.64v-.22s-.01-5.58-.01-5.58H5.58c-1.96,0-3.57-1.52-3.71-3.44v-.28s-.01-13.96-.01-13.96c0-4.49,3.54-8.16,7.98-8.36h.39s20.47,0,20.47,0ZM10.24,9.97c-2.57,0-4.65,2.08-4.65,4.65v13.96h9.3v-13.96c0-2.57-2.08-4.65-4.65-4.65ZM11.17,15.56c1.03,0,1.86.83,1.86,1.86,0,.95-.72,1.74-1.64,1.85h-.22s-1.86.01-1.86.01c-1.03,0-1.86-.83-1.86-1.86,0-.95.72-1.74,1.64-1.85h.22s1.86-.01,1.86-.01Z"/>
      </g>
    </g>
  </g>
</svg>