<?xml version="1.0" encoding="UTF-8"?>
<svg id="Layer_1" xmlns="http://www.w3.org/2000/svg" version="1.1" viewBox="0 0 44.58 44.58">
  <!-- Generator: Adobe Illustrator 29.8.2, SVG Export Plug-In . SVG Version: 2.1.1 Build 3)  -->
  <defs>
    <style>
      .st0 {
        fill: none;
      }

      .st1 {
        fill: #09244b;
        fill-rule: evenodd;
      }
    </style>
  </defs>
  <g id="_页面-1" data-name="页面-1">
    <g id="Map">
      <g id="map_fill">
        <path id="MingCute" class="st0" d="M44.58,0v44.58H0V0h44.58ZM23.39,43.2h-.02s-.13.07-.13.07h-.04s-.03,0-.03,0l-.13-.07s-.03,0-.04.01v.02s-.04.79-.04.79v.04s.03.02.03.02l.19.14h.03s.02,0,.02,0l.19-.14.02-.03h0v-.03s-.03-.79-.03-.79c0-.02-.02-.03-.03-.03h0ZM23.89,42.99h-.03s-.34.18-.34.18l-.02.02h0v.02s.03.8.03.8v.02h.02s.37.19.37.19c.02,0,.04,0,.05-.01v-.03s-.06-1.14-.06-1.14c0-.02-.02-.04-.04-.04h0ZM22.56,43s-.04,0-.05,0v.03s-.07,1.14-.07,1.14c0,.02.01.04.03.04h.03s.37-.17.37-.17h.02s0-.04,0-.04l.03-.8v-.02h0l-.02-.02-.34-.17Z"/>
        <path id="_形状" data-name="形状" class="st1" d="M16.72,9.39c-.12,3.05,0,22.24,0,22.24.3,0,.6.05.88.14l10.26,3.42V12.95c-.3,0-.6-.05-.88-.14l-10.26-3.42ZM15.84,5.77c.57-.19,1.19-.19,1.76,0l10.26,3.42,9.82-3.27c1.56-.52,3.18.64,3.18,2.29v24.56c0,1.2-.77,2.26-1.91,2.64l-10.22,3.41c-.57.19-1.19.19-1.76,0l-10.26-3.42-9.82,3.27c-1.56.52-3.18-.64-3.18-2.29V11.82c0-1.2.77-2.26,1.91-2.64l10.22-3.41Z"/>
      </g>
    </g>
  </g>
</svg>