<?xml version="1.0" encoding="UTF-8"?>
<svg id="Layer_1" xmlns="http://www.w3.org/2000/svg" version="1.1" viewBox="0 0 44 44">
  <!-- Generator: Adobe Illustrator 29.8.2, SVG Export Plug-In . SVG Version: 2.1.1 Build 3)  -->
  <defs>
    <style>
      .st0 {
        fill: none;
      }

      .st1 {
        fill: #09244b;
      }
    </style>
  </defs>
  <g id="_页面-1" data-name="页面-1">
    <g id="Logo">
      <g id="reddit_fill">
        <path id="MingCute" class="st0" d="M44.57,0v44.57H0V0h44.57ZM23.38,43.19h-.02s-.13.07-.13.07h-.04s-.03,0-.03,0l-.13-.07s-.03,0-.04.01v.02s-.04.79-.04.79v.04s.03.02.03.02l.19.14h.03s.02,0,.02,0l.19-.14.02-.03h0v-.03s-.03-.79-.03-.79c0-.02-.02-.03-.03-.03h0ZM23.88,42.98h-.03s-.34.18-.34.18l-.02.02h0v.02s.03.8.03.8v.02h.02s.37.19.37.19c.02,0,.04,0,.05-.01v-.03s-.06-1.14-.06-1.14c0-.02-.02-.04-.04-.04h0ZM22.55,42.98s-.04,0-.05,0v.03s-.07,1.14-.07,1.14c0,.02.01.04.03.04h.03s.37-.17.37-.17h.02s0-.04,0-.04l.03-.8v-.02h0l-.02-.02-.34-.17Z"/>
        <path id="_形状" data-name="形状" class="st1" d="M22.28,3.71c10.26,0,18.57,8.31,18.57,18.57s-8.31,18.57-18.57,18.57S3.71,32.54,3.71,22.28,12.03,3.71,22.28,3.71ZM27.85,11.14c-.56,0-1.05.24-1.39.63l-3.07-.61c-.25-.05-.51,0-.72.15-.21.15-.35.37-.38.63l-.68,4.79c-2.64.12-5.09.92-6.96,2.22-.36.25-.7.52-1.02.82-.36-.17-.77-.27-1.2-.27-1.54,0-2.79,1.25-2.79,2.79,0,1.07.61,2,1.49,2.47v.32h0c0,2.57,1.49,4.7,3.51,6.12,2.03,1.42,4.73,2.24,7.63,2.24s5.6-.82,7.63-2.24c2.02-1.42,3.51-3.55,3.51-6.12v-.32h0c.89-.47,1.49-1.4,1.49-2.47,0-1.54-1.25-2.79-2.79-2.79-.43,0-.83.1-1.2.27-.32-.29-.66-.57-1.02-.82-1.75-1.22-3.99-2-6.43-2.19l.51-3.59,2.1.42c.25.73.94,1.26,1.76,1.26,1.03,0,1.86-.83,1.86-1.86s-.83-1.86-1.86-1.86ZM17.64,22.28c1.54,0,2.79,1.25,2.79,2.79s-1.25,2.79-2.79,2.79-2.79-1.25-2.79-2.79,1.25-2.79,2.79-2.79ZM26.92,22.28c1.54,0,2.79,1.25,2.79,2.79s-1.25,2.79-2.79,2.79-2.79-1.25-2.79-2.79,1.25-2.79,2.79-2.79Z"/>
      </g>
    </g>
  </g>
</svg>